<mxfile host="app.diagrams.net" modified="2023-06-25T02:30:50.978Z" agent="Mozilla/5.0 (Windows NT 10.0; Win64; x64) AppleWebKit/537.36 (KHTML, like Gecko) Chrome/115.0.0.0 Safari/537.36 Edg/115.0.1901.14" etag="-TT-amG2H1zyGM8WHzDz" version="21.5.0" type="device">
  <diagram id="C5RBs43oDa-KdzZeNtuy" name="Page-1">
    <mxGraphModel dx="1169" dy="1902" grid="1" gridSize="10" guides="1" tooltips="1" connect="1" arrows="1" fold="1" page="1" pageScale="1" pageWidth="827" pageHeight="1169" math="0" shadow="0">
      <root>
        <mxCell id="WIyWlLk6GJQsqaUBKTNV-0" />
        <mxCell id="WIyWlLk6GJQsqaUBKTNV-1" parent="WIyWlLk6GJQsqaUBKTNV-0" />
        <mxCell id="RL8ncKYhGrds_dJlCCFE-32" value="" style="rounded=0;whiteSpace=wrap;html=1;" vertex="1" parent="WIyWlLk6GJQsqaUBKTNV-1">
          <mxGeometry x="20" y="120" width="570" height="110" as="geometry" />
        </mxCell>
        <mxCell id="WIyWlLk6GJQsqaUBKTNV-2" value="" style="rounded=0;html=1;jettySize=auto;orthogonalLoop=1;fontSize=11;endArrow=block;endFill=0;endSize=8;strokeWidth=1;shadow=0;labelBackgroundColor=none;edgeStyle=orthogonalEdgeStyle;entryX=0;entryY=0.5;entryDx=0;entryDy=0;" parent="WIyWlLk6GJQsqaUBKTNV-1" target="WIyWlLk6GJQsqaUBKTNV-7" edge="1">
          <mxGeometry relative="1" as="geometry">
            <mxPoint x="150" y="300" as="sourcePoint" />
            <mxPoint x="320" y="300" as="targetPoint" />
          </mxGeometry>
        </mxCell>
        <mxCell id="RL8ncKYhGrds_dJlCCFE-0" value="&lt;font style=&quot;font-size: 21px;&quot;&gt;Master&lt;/font&gt;" style="edgeLabel;html=1;align=center;verticalAlign=middle;resizable=0;points=[];" vertex="1" connectable="0" parent="WIyWlLk6GJQsqaUBKTNV-2">
          <mxGeometry x="-0.2186" y="2" relative="1" as="geometry">
            <mxPoint x="46" y="2" as="offset" />
          </mxGeometry>
        </mxCell>
        <mxCell id="RL8ncKYhGrds_dJlCCFE-25" style="edgeStyle=orthogonalEdgeStyle;rounded=0;orthogonalLoop=1;jettySize=auto;html=1;exitX=1;exitY=0.5;exitDx=0;exitDy=0;entryX=0;entryY=0.5;entryDx=0;entryDy=0;" edge="1" parent="WIyWlLk6GJQsqaUBKTNV-1" source="WIyWlLk6GJQsqaUBKTNV-7" target="RL8ncKYhGrds_dJlCCFE-22">
          <mxGeometry relative="1" as="geometry" />
        </mxCell>
        <mxCell id="RL8ncKYhGrds_dJlCCFE-27" value="git push origin master" style="edgeLabel;html=1;align=center;verticalAlign=middle;resizable=0;points=[];" vertex="1" connectable="0" parent="RL8ncKYhGrds_dJlCCFE-25">
          <mxGeometry x="-0.15" y="1" relative="1" as="geometry">
            <mxPoint as="offset" />
          </mxGeometry>
        </mxCell>
        <mxCell id="WIyWlLk6GJQsqaUBKTNV-7" value="Master" style="rounded=1;whiteSpace=wrap;html=1;fontSize=12;glass=0;strokeWidth=1;shadow=0;" parent="WIyWlLk6GJQsqaUBKTNV-1" vertex="1">
          <mxGeometry x="670" y="280" width="120" height="40" as="geometry" />
        </mxCell>
        <mxCell id="RL8ncKYhGrds_dJlCCFE-7" value="" style="edgeStyle=orthogonalEdgeStyle;rounded=0;orthogonalLoop=1;jettySize=auto;html=1;" edge="1" parent="WIyWlLk6GJQsqaUBKTNV-1" source="RL8ncKYhGrds_dJlCCFE-2">
          <mxGeometry relative="1" as="geometry">
            <mxPoint x="210" y="190" as="targetPoint" />
          </mxGeometry>
        </mxCell>
        <mxCell id="RL8ncKYhGrds_dJlCCFE-2" value="feature-1" style="rounded=1;whiteSpace=wrap;html=1;" vertex="1" parent="WIyWlLk6GJQsqaUBKTNV-1">
          <mxGeometry x="60" y="180" width="80" height="20" as="geometry" />
        </mxCell>
        <mxCell id="RL8ncKYhGrds_dJlCCFE-4" value="feature-2" style="rounded=1;whiteSpace=wrap;html=1;" vertex="1" parent="WIyWlLk6GJQsqaUBKTNV-1">
          <mxGeometry x="60" y="430" width="90" height="20" as="geometry" />
        </mxCell>
        <mxCell id="RL8ncKYhGrds_dJlCCFE-10" style="edgeStyle=orthogonalEdgeStyle;rounded=0;orthogonalLoop=1;jettySize=auto;html=1;exitX=0.5;exitY=0;exitDx=0;exitDy=0;entryX=0.434;entryY=-0.047;entryDx=0;entryDy=0;entryPerimeter=0;" edge="1" parent="WIyWlLk6GJQsqaUBKTNV-1" source="RL8ncKYhGrds_dJlCCFE-9" target="RL8ncKYhGrds_dJlCCFE-2">
          <mxGeometry relative="1" as="geometry" />
        </mxCell>
        <mxCell id="RL8ncKYhGrds_dJlCCFE-12" value="&quot;git reset HEAD .&quot;" style="edgeLabel;html=1;align=center;verticalAlign=middle;resizable=0;points=[];" vertex="1" connectable="0" parent="RL8ncKYhGrds_dJlCCFE-10">
          <mxGeometry x="0.0895" y="-3" relative="1" as="geometry">
            <mxPoint as="offset" />
          </mxGeometry>
        </mxCell>
        <mxCell id="RL8ncKYhGrds_dJlCCFE-13" style="edgeStyle=orthogonalEdgeStyle;rounded=0;orthogonalLoop=1;jettySize=auto;html=1;exitX=1;exitY=0.5;exitDx=0;exitDy=0;" edge="1" parent="WIyWlLk6GJQsqaUBKTNV-1" source="RL8ncKYhGrds_dJlCCFE-9">
          <mxGeometry relative="1" as="geometry">
            <mxPoint x="340" y="189.8620689655172" as="targetPoint" />
          </mxGeometry>
        </mxCell>
        <mxCell id="RL8ncKYhGrds_dJlCCFE-9" value="git add" style="rounded=1;whiteSpace=wrap;html=1;" vertex="1" parent="WIyWlLk6GJQsqaUBKTNV-1">
          <mxGeometry x="210" y="180" width="80" height="20" as="geometry" />
        </mxCell>
        <mxCell id="RL8ncKYhGrds_dJlCCFE-15" style="edgeStyle=orthogonalEdgeStyle;rounded=0;orthogonalLoop=1;jettySize=auto;html=1;exitX=0.5;exitY=0;exitDx=0;exitDy=0;entryX=0.198;entryY=-0.024;entryDx=0;entryDy=0;entryPerimeter=0;" edge="1" parent="WIyWlLk6GJQsqaUBKTNV-1" source="RL8ncKYhGrds_dJlCCFE-14" target="RL8ncKYhGrds_dJlCCFE-2">
          <mxGeometry relative="1" as="geometry">
            <Array as="points">
              <mxPoint x="380" y="140" />
              <mxPoint x="76" y="140" />
            </Array>
          </mxGeometry>
        </mxCell>
        <mxCell id="RL8ncKYhGrds_dJlCCFE-16" value="git commit -amend" style="edgeLabel;html=1;align=center;verticalAlign=middle;resizable=0;points=[];" vertex="1" connectable="0" parent="RL8ncKYhGrds_dJlCCFE-15">
          <mxGeometry x="0.0569" y="1" relative="1" as="geometry">
            <mxPoint as="offset" />
          </mxGeometry>
        </mxCell>
        <mxCell id="RL8ncKYhGrds_dJlCCFE-14" value="git commit" style="rounded=1;whiteSpace=wrap;html=1;" vertex="1" parent="WIyWlLk6GJQsqaUBKTNV-1">
          <mxGeometry x="340" y="180" width="80" height="20" as="geometry" />
        </mxCell>
        <mxCell id="RL8ncKYhGrds_dJlCCFE-17" style="edgeStyle=orthogonalEdgeStyle;rounded=0;orthogonalLoop=1;jettySize=auto;html=1;exitX=1;exitY=0.5;exitDx=0;exitDy=0;entryX=0.375;entryY=0.111;entryDx=0;entryDy=0;entryPerimeter=0;" edge="1" parent="WIyWlLk6GJQsqaUBKTNV-1" target="RL8ncKYhGrds_dJlCCFE-20">
          <mxGeometry relative="1" as="geometry">
            <mxPoint x="550" y="270" as="targetPoint" />
            <mxPoint x="420" y="189.66" as="sourcePoint" />
            <Array as="points">
              <mxPoint x="551" y="190" />
            </Array>
          </mxGeometry>
        </mxCell>
        <mxCell id="RL8ncKYhGrds_dJlCCFE-18" value="git checkout master" style="edgeLabel;html=1;align=center;verticalAlign=middle;resizable=0;points=[];" vertex="1" connectable="0" parent="RL8ncKYhGrds_dJlCCFE-17">
          <mxGeometry x="-0.2606" y="-2" relative="1" as="geometry">
            <mxPoint as="offset" />
          </mxGeometry>
        </mxCell>
        <mxCell id="RL8ncKYhGrds_dJlCCFE-21" style="edgeStyle=orthogonalEdgeStyle;rounded=0;orthogonalLoop=1;jettySize=auto;html=1;exitX=0.5;exitY=1;exitDx=0;exitDy=0;" edge="1" parent="WIyWlLk6GJQsqaUBKTNV-1" source="RL8ncKYhGrds_dJlCCFE-20">
          <mxGeometry relative="1" as="geometry">
            <mxPoint x="565.0344827586207" y="300" as="targetPoint" />
          </mxGeometry>
        </mxCell>
        <mxCell id="RL8ncKYhGrds_dJlCCFE-20" value="git merge feature-1" style="rounded=1;whiteSpace=wrap;html=1;" vertex="1" parent="WIyWlLk6GJQsqaUBKTNV-1">
          <mxGeometry x="510" y="255" width="110" height="20" as="geometry" />
        </mxCell>
        <mxCell id="RL8ncKYhGrds_dJlCCFE-22" value="Master" style="rounded=1;whiteSpace=wrap;html=1;fontSize=12;glass=0;strokeWidth=1;shadow=0;" vertex="1" parent="WIyWlLk6GJQsqaUBKTNV-1">
          <mxGeometry x="950" y="280" width="120" height="40" as="geometry" />
        </mxCell>
        <mxCell id="RL8ncKYhGrds_dJlCCFE-24" value="&lt;font style=&quot;font-size: 19px;&quot;&gt;&lt;b&gt;&lt;i&gt;&lt;u&gt;Local Master&lt;/u&gt;&lt;/i&gt;&lt;/b&gt;&lt;/font&gt;" style="text;html=1;align=center;verticalAlign=middle;resizable=0;points=[];autosize=1;strokeColor=none;fillColor=none;" vertex="1" parent="WIyWlLk6GJQsqaUBKTNV-1">
          <mxGeometry x="640" y="13" width="140" height="40" as="geometry" />
        </mxCell>
        <mxCell id="RL8ncKYhGrds_dJlCCFE-26" value="" style="endArrow=none;dashed=1;html=1;dashPattern=1 3;strokeWidth=2;rounded=0;" edge="1" parent="WIyWlLk6GJQsqaUBKTNV-1">
          <mxGeometry width="50" height="50" relative="1" as="geometry">
            <mxPoint x="830" y="450" as="sourcePoint" />
            <mxPoint x="830" as="targetPoint" />
          </mxGeometry>
        </mxCell>
        <mxCell id="RL8ncKYhGrds_dJlCCFE-28" value="&lt;font size=&quot;1&quot; style=&quot;&quot;&gt;&lt;i style=&quot;&quot;&gt;&lt;b style=&quot;font-size: 18px;&quot;&gt;Remote Github Mater&lt;/b&gt;&lt;/i&gt;&lt;/font&gt;" style="text;html=1;align=center;verticalAlign=middle;resizable=0;points=[];autosize=1;strokeColor=none;fillColor=none;" vertex="1" parent="WIyWlLk6GJQsqaUBKTNV-1">
          <mxGeometry x="840" y="13" width="210" height="40" as="geometry" />
        </mxCell>
        <mxCell id="RL8ncKYhGrds_dJlCCFE-38" style="edgeStyle=orthogonalEdgeStyle;rounded=0;orthogonalLoop=1;jettySize=auto;html=1;exitX=1;exitY=0.5;exitDx=0;exitDy=0;entryX=0;entryY=0.5;entryDx=0;entryDy=0;" edge="1" parent="WIyWlLk6GJQsqaUBKTNV-1" source="RL8ncKYhGrds_dJlCCFE-30" target="RL8ncKYhGrds_dJlCCFE-37">
          <mxGeometry relative="1" as="geometry" />
        </mxCell>
        <mxCell id="RL8ncKYhGrds_dJlCCFE-30" value="" style="rounded=1;whiteSpace=wrap;html=1;" vertex="1" parent="WIyWlLk6GJQsqaUBKTNV-1">
          <mxGeometry x="130" y="40" width="300" height="30" as="geometry" />
        </mxCell>
        <mxCell id="RL8ncKYhGrds_dJlCCFE-34" style="edgeStyle=orthogonalEdgeStyle;rounded=0;orthogonalLoop=1;jettySize=auto;html=1;entryX=0.456;entryY=0.024;entryDx=0;entryDy=0;entryPerimeter=0;" edge="1" parent="WIyWlLk6GJQsqaUBKTNV-1" source="RL8ncKYhGrds_dJlCCFE-29" target="RL8ncKYhGrds_dJlCCFE-32">
          <mxGeometry relative="1" as="geometry" />
        </mxCell>
        <mxCell id="RL8ncKYhGrds_dJlCCFE-29" value="(After Finishing Feature1 develop, delete the branch)" style="text;html=1;align=center;verticalAlign=middle;resizable=0;points=[];autosize=1;strokeColor=none;fillColor=none;" vertex="1" parent="WIyWlLk6GJQsqaUBKTNV-1">
          <mxGeometry x="120" y="40" width="300" height="30" as="geometry" />
        </mxCell>
        <mxCell id="RL8ncKYhGrds_dJlCCFE-31" value="Master" style="ellipse;whiteSpace=wrap;html=1;" vertex="1" parent="WIyWlLk6GJQsqaUBKTNV-1">
          <mxGeometry x="30" y="260" width="120" height="80" as="geometry" />
        </mxCell>
        <mxCell id="RL8ncKYhGrds_dJlCCFE-33" value="Feature Branch" style="text;html=1;align=center;verticalAlign=middle;resizable=0;points=[];autosize=1;strokeColor=none;fillColor=none;" vertex="1" parent="WIyWlLk6GJQsqaUBKTNV-1">
          <mxGeometry x="480" y="120" width="110" height="30" as="geometry" />
        </mxCell>
        <mxCell id="RL8ncKYhGrds_dJlCCFE-35" value="git branch -d feature-1" style="text;html=1;align=center;verticalAlign=middle;resizable=0;points=[];autosize=1;strokeColor=none;fillColor=none;" vertex="1" parent="WIyWlLk6GJQsqaUBKTNV-1">
          <mxGeometry x="274" y="78" width="140" height="30" as="geometry" />
        </mxCell>
        <mxCell id="RL8ncKYhGrds_dJlCCFE-37" value="feature-1" style="rounded=1;whiteSpace=wrap;html=1;" vertex="1" parent="WIyWlLk6GJQsqaUBKTNV-1">
          <mxGeometry x="960" y="155" width="100" height="40" as="geometry" />
        </mxCell>
        <mxCell id="RL8ncKYhGrds_dJlCCFE-39" value="" style="endArrow=none;dashed=1;html=1;dashPattern=1 3;strokeWidth=2;rounded=0;entryX=0.5;entryY=1;entryDx=0;entryDy=0;" edge="1" parent="WIyWlLk6GJQsqaUBKTNV-1" source="RL8ncKYhGrds_dJlCCFE-22" target="RL8ncKYhGrds_dJlCCFE-37">
          <mxGeometry width="50" height="50" relative="1" as="geometry">
            <mxPoint x="590" y="310" as="sourcePoint" />
            <mxPoint x="640" y="260" as="targetPoint" />
          </mxGeometry>
        </mxCell>
        <mxCell id="RL8ncKYhGrds_dJlCCFE-40" value="git push origin --delete feature-1" style="text;html=1;align=center;verticalAlign=middle;resizable=0;points=[];autosize=1;strokeColor=none;fillColor=none;" vertex="1" parent="WIyWlLk6GJQsqaUBKTNV-1">
          <mxGeometry x="640" y="120" width="190" height="30" as="geometry" />
        </mxCell>
      </root>
    </mxGraphModel>
  </diagram>
</mxfile>
